<svg version="1.1" id="Layer_11" xmlns="http://www.w3.org/2000/svg" xmlns:xlink="http://www.w3.org/1999/xlink" x="0px" y="0px"
	 width="200px" height="200px" viewBox="0 0 200 200" enable-background="new 0 0 200 200" xml:space="preserve">
<path fill="#FFFFFF" d="M147.795,1h-95.63C24.899,1,2,23.899,2,51.172v95.616C2,174.06,24.899,197,52.165,197H90c0-28.394,0-57,0-89c-5,0-12,0-18,0
	c0-5,0-19,0-31c6,0,13,0,18,0c0,0,0-6.003,0-9.822c0-5.417,0.47-10.839,0.624-16.254c0.471-17.215,10.578-28.39,27.747-31.201
	c3.502-0.572,8.507-0.924,12.045-0.972C139.349,18.608,147,18.704,159,18.704c0,10.816,0,21.231,0,32.393
	c-12,0-14.025-0.021-20.394,0.011c-6.734,0.029-9.618,1.065-9.826,7.651C128.596,64.97,128.103,71,128.103,77
	c9.729,0,18.799,0,28.575,0c-0.887,12-1.737,26-2.612,31c-8.61,0-20.065,0-25.065,0c0,32,0,58.832,0,89h18.795
	C175.06,197,198,174.06,198,146.788V51.172C198,23.899,175.06,1,147.795,1z"/>
</svg>
