<svg version="1.1" id="Layer_4" xmlns="http://www.w3.org/2000/svg" xmlns:xlink="http://www.w3.org/1999/xlink" x="0px" y="0px"
	 width="200px" height="200px" viewBox="0 0 200 200" enable-background="new 0 0 200 200" xml:space="preserve">
<path fill-rule="evenodd" clip-rule="evenodd" fill="none" stroke="#FFFFFF" stroke-width="12" stroke-miterlimit="10" d="
	M114.319,97.548c0,24.409,0.015,48.817-0.025,73.225c-0.002,1.926-0.056,3.941-0.604,5.758c-1.739,5.738-7.888,8.014-12.936,4.828
	c-1.626-1.023-3.056-2.4-4.426-3.766c-13.682-13.639-27.376-27.264-40.947-41.012c-2.158-2.184-4.287-3.199-7.415-3.139
	c-10.18,0.195-20.365,0.111-30.548,0.061c-7.31-0.037-10.838-3.475-10.86-10.686c-0.054-16.77-0.051-33.542-0.002-50.313
	C6.576,65.224,10.05,61.75,17.31,61.708c10.333-0.062,20.669,0.14,30.993-0.14c2.237-0.06,4.976-1.129,6.56-2.679
	C68.671,45.381,82.269,31.658,95.932,18c0.953-0.953,1.869-1.951,2.896-2.816c2.917-2.455,6.122-3.822,9.912-2.088
	c3.827,1.748,5.54,4.903,5.562,8.98c0.05,9.434,0.017,18.868,0.017,28.303C114.322,66.101,114.319,81.826,114.319,97.548z"/>
<path fill="#FFFFFF" d="M194.58,110.145c1.122,1.123,1.122,2.943,0,4.066l-9.369,9.369c-1.123,1.122-2.943,1.122-4.066,0L136.42,78.855
	c-1.122-1.123-1.122-2.943,0-4.066l9.369-9.369c1.123-1.123,2.943-1.123,4.066,0L194.58,110.145z"/>
<path fill="#FFFFFF" d="M181.145,65.42c1.123-1.122,2.943-1.122,4.066,0l9.369,9.369c1.122,1.123,1.122,2.943,0,4.066l-44.725,44.725
	c-1.123,1.122-2.943,1.122-4.066,0l-9.369-9.369c-1.123-1.123-1.123-2.943,0-4.066L181.145,65.42z"/>
</svg>
