<svg version="1.1" id="Layer_10" xmlns="http://www.w3.org/2000/svg" xmlns:xlink="http://www.w3.org/1999/xlink" x="0px" y="0px"
	 width="200px" height="200px" viewBox="0 0 200 200" enable-background="new 0 0 200 200" xml:space="preserve">
<path d="M147.677,1h-96.46C23.713,1,1,24.769,1,52.279v96.447C1,176.235,23.713,197,51.216,197h96.46
	C175.182,197,197,176.235,197,148.726V52.279C197,24.769,175.182,1,147.677,1z M176.532,64.644c-3.249,2.84-4.7,5.521-4.692,9.942
	c0.079,47.885-33.272,90.951-79.854,102.415c-28.269,6.967-55.451,3.409-80.897-11.254c-0.84-0.5-1.63-1.073-2.445-1.617
	c19.165,0.26,36.527-3.778,52.757-15.612C44.732,145.912,33.3,134,27.525,122c4.86,0,9.183,0,13.507,0
	c-16.435-8-25.718-19.422-26.731-37.936c5.009,1.449,9.573,2.621,15.113,4.241c-16.2-20.696-18.788-35.288-9.184-50.271
	c20.036,23.293,45.087,36.625,76.314,38.983c0-4.583-0.403-8.677,0.074-12.655c1.729-14.754,9.678-25.28,23.383-30.637
	c13.809-5.39,27.038-3.382,38.489,6.346c2.631,2.245,4.849,2.708,7.795,1.584c6.163-2.349,12.34-4.706,18.923-7.211
	c-2.196,8.125-7.268,13.898-13.068,19.722c5.728-1.573,11.444-3.145,17.171-4.723c0.309,0.346,0.617,0.685,0.939,1.031
	C185.705,55.24,181.469,60.345,176.532,64.644z" fill="#FFFFFF" />
</svg>
