<svg version="1.1" id="Layer_9" xmlns="http://www.w3.org/2000/svg" xmlns:xlink="http://www.w3.org/1999/xlink" x="0px" y="0px"
	 width="200px" height="200px" viewBox="0 0 200 200" enable-background="new 0 0 200 200" xml:space="preserve">
<g>
	<path d="M171.063,177.358c-0.032-0.703-0.063-1.354-0.063-1.898V46.665L140.113,16h-91.98C39.284,16,34,19.058,34,24.179V175.46
		c0,5.707,8.585,14.54,14.133,14.54h116.528c1.638,0,3.154-0.643,4.27-1.81C171.438,185.565,171.239,181.205,171.063,177.358z
		 M163.096,182H48.276c-1.768-0.499-5.882-4.847-6.276-6.642V24.983C42.99,24.521,45.331,24,48.133,24h88.683L163,49.996V175.46
		c0,0.649,0.033,1.426,0.072,2.264C163.121,178.795,163.209,180.731,163.096,182z" fill="#FFFFFF"/>
	<polygon points="134,35 126,35 126,64 127,64 134,64 156,64 156,56 134,56" fill="#FFFFFF"/>
	<rect x="52" y="115" width="95" height="8" fill="#FFFFFF"/>
	<rect x="52" y="143" width="91" height="8" fill="#FFFFFF"/>
	<rect x="52" y="87" width="43" height="8" fill="#FFFFFF" />
</g>
</svg>
