<svg version="1.1" xmlns="http://www.w3.org/2000/svg" xmlns:xlink="http://www.w3.org/1999/xlink" x="0px" y="0px" width="200px"
	 height="200px" viewBox="0 0 200 200" enable-background="new 0 0 200 200" xml:space="preserve">
<g id="Layer_5">
	<path fill-rule="evenodd" clip-rule="evenodd" fill="none" stroke="#FFFFFF" stroke-width="12" stroke-miterlimit="10" d="
		M113.47,99.084c-0.001,24.008,0.003,48.016-0.011,72.021c-0.001,1.626,0.072,3.293-0.243,4.871
		c-1.312,6.57-8.135,9.386-13.652,5.637c-1.456-0.989-2.735-2.265-3.989-3.515c-13.639-13.608-27.196-27.296-40.963-40.771
		c-1.567-1.533-4.273-2.587-6.485-2.646c-10.07-0.277-20.153-0.098-30.229-0.131c-7.761-0.028-11.068-3.345-11.082-11.142
		c-0.029-16.302-0.034-32.603,0.001-48.904c0.016-7.691,3.401-10.996,11.212-11.02c9.928-0.032,19.86-0.129,29.786,0.063
		c3.097,0.062,5.21-0.953,7.343-3.114C68.379,47.044,81.73,33.777,95.038,20.47c0.839-0.838,1.651-1.708,2.528-2.503
		c3.03-2.752,6.369-4.455,10.49-2.529c3.954,1.848,5.425,5.203,5.419,9.4c-0.017,11.854-0.005,23.71-0.005,35.567
		C113.47,73.297,113.47,86.191,113.47,99.084z"/>
	<path fill="#FFFFFF" fill-rule="evenodd" clip-rule="evenodd" d="M198,100.625c-2.045,34.603-18.164,60.94-50.696,76.558
		c-5.306,2.545-10.427-0.065-10.915-5.366c-0.363-3.928,2.1-6.162,5.26-7.609c17.262-7.895,29.266-20.744,36.735-38.122
		c10.418-24.231,4.568-56.073-13.805-74.986c-6.673-6.87-14.143-12.475-22.901-16.4c-4.729-2.121-6.506-6.149-4.704-9.984
		c1.817-3.875,5.969-5.107,10.611-2.872c28.88,13.907,45.462,36.745,49.562,68.569C197.54,93.454,197.666,96.53,198,100.625z"/>
	<path fill="#FFFFFF" fill-rule="evenodd" clip-rule="evenodd" d="M170.495,101.618c-1.276,21.599-11.941,39.232-33.647,49.657
		c-3.871,1.859-7.948,0.534-9.774-2.951c-1.801-3.431-0.749-7.262,3.072-9.35c6.382-3.487,12.442-7.289,16.991-13.124
		c16.386-21.012,10.257-50.87-13.095-63.709c-1.345-0.74-2.721-1.434-4.021-2.25c-3.635-2.289-4.747-6-2.881-9.418
		c1.848-3.382,5.709-4.641,9.492-2.973c13.249,5.845,22.693,15.59,28.776,28.602C168.858,83.479,170.317,91.368,170.495,101.618z"/>
</g>
</svg>
