<svg version="1.1" id="Layer_12" xmlns="http://www.w3.org/2000/svg" xmlns:xlink="http://www.w3.org/1999/xlink" x="0px" y="0px"
	 width="200px" height="200px" viewBox="0 0 200 200" enable-background="new 0 0 200 200" xml:space="preserve">
<g>
	<path fill="#FFFFFF" d="M67.445,118.419c-1.822,0.218-3.926,0.363-5.989,0.736c-7.244,1.31-13.726,4.185-18.934,9.548
		c-5.752,5.925-7.29,13.627-3.982,20.515c2.402,5.005,6.501,8.308,11.413,10.621c7.935,3.734,16.257,4.38,24.767,2.606
		c7.427-1.55,13.969-4.766,18.973-10.685c6.399-7.569,5.908-17.844-1.256-24.673C85.51,120.483,76.943,118.521,67.445,118.419z"/>
	<path fill="#FFFFFF" d="M80.441,80.648c2.103-2.428,3.459-5.269,4.268-8.354c2.06-7.848,1.067-15.441-2.154-22.779
		c-2.294-5.224-5.617-9.672-10.476-12.811c-8.627-5.575-18.136-2.898-22.634,6.33c-1.9,3.897-2.663,8.035-2.662,13.805
		c-0.011,3.177,0.872,7.657,2.623,11.943c2.581,6.312,6.405,11.628,12.516,15.005C68.46,87.399,75.651,86.181,80.441,80.648z"/>
	<path fill="#FFFFFF" d="M147.795,1h-95.63C24.899,1,2,23.899,2,51.172v95.616C2,174.06,24.899,197,52.165,197H90c0-0.001,0-0.002,0-0.003l39-0.003
		c0,0.002,0,0.004,0,0.006h18.795c0.1,0,0.197,0,0.297,0h0.485l0.002-0.017C175.497,196.547,198,173.797,198,146.788V51.172
		C198,23.899,175.06,1,147.795,1z M95.614,165.607c-6.787,4.094-14.22,6.258-21.999,7.26c-9.249,1.192-18.473,1.023-27.589-1.166
		c-5.653-1.357-11.004-3.424-15.681-6.975c-7.427-5.641-10.56-13.28-10.327-22.441c0.276-10.834,6.042-18.045,15.282-22.885
		c6.529-3.423,13.583-5.182,20.844-6.047c4.46-0.53,8.97-0.663,13.459-0.974c0.246-0.018,0.493-0.034,0.823-0.057
		c-0.102-2.241-0.785-4.149-2.438-5.638c-0.53-0.479-1.107-0.906-1.664-1.355c-0.87-0.701-1.326-1.58-1.315-2.729
		c0.026-2.814,0.009-5.628,0.009-8.714c-2.587,0-5.108,0.194-7.592-0.035c-8.542-0.789-16.297-3.425-22.115-10.162
		c-3.696-4.28-5.525-9.385-6.254-14.913c-0.901-6.827-0.477-13.532,2.222-19.955c3.128-7.44,8.634-12.652,15.706-16.266
		c8.116-4.146,16.773-6.358,25.891-6.358C85.043,26.197,97.21,26,109.376,26c0.668,0,1.335,0,2.048,0
		c0.072,2-1.093,2.981-2.441,3.458c-1.928,0.681-3.941,1.266-5.952,1.649c-2.723,0.52-5.484,0.872-8.213,1.361
		c-0.715,0.128-1.37,0.625-2.276,1.041c0.463,0.35,0.606,0.517,0.782,0.597c6.103,2.777,9.504,7.594,10.511,14.134
		c0.887,5.762,1.19,11.568,0.334,17.353c-0.995,6.714-4.54,12.038-9.518,16.484c-2.698,2.41-5.484,4.724-8.145,7.173
		c-1.366,1.257-2.632,2.735-2.76,4.681c-0.083,1.243-0.096,2.791,0.551,3.722c1.468,2.114,3.216,4.093,5.116,5.838
		c4.056,3.727,8.43,7.111,12.396,10.928c4.858,4.677,8.322,10.29,9.271,17.109C112.873,144.391,108.493,157.837,95.614,165.607z
		 M188.591,64C179.011,64,170,64,160,64c0,9,0,19,0,28c-3,0-6,0-9,0c0-9,0-19,0-28c0,0-0.652,0-1.144,0
		c-8.461,0-16.854-0.209-25.314-0.21c-1.606,0-1.542-0.21-1.542-1.869c0-2.227,0-4.921,0-6.921c9,0,19,0,28,0c0-10,0-19,0-28
		c3,0,5.989,0,8.895,0c0.028,0,0.088,0.771,0.088,1.298c0.002,8.46,0.026,16.798-0.035,25.258c-0.009,1.279,0.33,1.562,1.615,1.554
		c8.5-0.057,17.003-0.036,25.506-0.084c1.198-0.007,1.608,0.497,1.551,1.739C188.521,59.062,188.591,61,188.591,64z"/>
</g>
</svg>
