<svg version="1.1" id="Layer_14" xmlns="http://www.w3.org/2000/svg" xmlns:xlink="http://www.w3.org/1999/xlink" x="0px" y="0px"
	 width="200px" height="200px" viewBox="0 0 200 200" enable-background="new 0 0 200 200" xml:space="preserve">
<g>
	<path fill="#FFFFFF" fill-rule="evenodd" clip-rule="evenodd" d="M197.693,83.453c0-0.4-0.64-0.453-1.156-1.453c-17.266,0-34.679,0-52.61,0
		c7.589,24,3.149,43.602-17.426,58.062c-15.287,10.75-35.431,10.698-50.828-0.001C55.001,125.687,50.567,106,58.026,82
		c-18.656,0-36.795,0-55.322,0c-0.215,2-0.547,4.177-0.547,5.997c-0.043,20.166-0.124,40.413,0,60.583
		c0.147,26.109,19.123,47.72,45.305,48.604c34.926,1.17,69.938,1.11,104.876,0.04c23.969-0.738,42.797-18.269,44.629-42.04
		C198.825,131.399,197.607,107.363,197.693,83.453z"/>
	<path fill="#FFFFFF" fill-rule="evenodd" clip-rule="evenodd" d="M145.317,1.022c-29.86-0.037-59.707-0.019-89.566-0.006
		C21.317,1.041,1.493,21.547,2.009,56.172c0.08,5.516,1.556,7.514,7.292,7.422c19.086-0.308,38.185,0.08,57.277-0.258
		c4.348-0.08,9.009-1.267,12.932-3.167c12.839-6.229,26.146-7.908,38.825-1.52c8.706,4.391,17.253,5.042,26.391,4.852
		c5.645-0.117,11.29-0.019,16.946-0.031c10.22,0,20.439-0.111,30.659,0.055c4.033,0.062,5.534-1.297,5.842-5.54
		C200.534,24.443,178.988,1.059,145.317,1.022z M155.217,52.895c-14.352,0-14.352,0-14.34-14.198
		c0.013-13.239,0.443-13.645,14.254-13.638c13.491,0.005,14.007,0.51,14.007,13.952C169.138,52.6,168.831,52.895,155.217,52.895z"/>
	<path fill="#FFFFFF" fill-rule="evenodd" clip-rule="evenodd" d="M120.327,101.201c-0.135-10.325-8.83-19.038-19.11-19.179
		c-10.718-0.154-19.308,8.59-19.247,19.585c0.074,10.838,8.042,18.83,18.865,18.916
		C111.743,120.609,120.487,111.951,120.327,101.201z"/>
</g>
</svg>
